<svg width="610" height="600" viewBox="0 0 610 600" fill="none" xmlns="http://www.w3.org/2000/svg">
<g clip-path="url(#clip0)">
<mask id="mask0" mask-type="alpha" maskUnits="userSpaceOnUse" x="127" y="145" width="424" height="423">
<circle cx="339.015" cy="356.874" r="211.036" transform="rotate(-54.5 339.015 356.874)" fill="white"/>
</mask>
<g mask="url(#mask0)">
<circle cx="353.869" cy="370.729" r="224.891" transform="rotate(-54.5 353.869 370.729)" fill="url(#paint0_radial)"/>
<circle cx="352.869" cy="370.729" r="224.891" transform="rotate(-54.5 352.869 370.729)" fill="url(#paint1_radial)"/>
</g>
</g>
<path d="M35.2949 380.498C22.8268 341.628 19.2303 300.598 26.4234 258.369C29.5404 240.853 34.3358 224.057 39.6108 207.022C39.6108 207.022 72.6992 98.3292 184.672 48.6617C184.672 48.6617 223.275 28.2669 281.3 26.8273C281.3 26.8273 273.387 19.1492 268.352 15.7901C241.018 -2.44533 200.257 -8.44381 175.561 17.2297C168.128 24.9078 161.894 33.3056 154.941 40.9837C147.028 49.6215 137.437 56.8197 126.408 60.8987C116.817 64.4977 107.226 63.7779 97.3955 65.4575C87.3252 67.1371 77.015 70.7362 68.8628 77.2145C59.9913 84.4127 56.3947 94.0103 55.4357 105.047C54.4766 113.685 54.7163 122.563 54.2368 131.201C53.0379 156.634 44.8857 163.833 26.6632 177.989C18.9905 183.748 12.5167 191.426 7.72127 199.584C-6.66498 225.017 16.353 251.41 17.5519 277.084C17.7916 282.363 17.3121 287.641 15.3939 292.68C13.4758 298.199 9.63943 301.798 6.52241 306.357C2.20654 312.355 -0.670711 319.553 0.528143 326.991C1.727 334.429 5.56333 341.388 9.15989 347.866C16.1132 359.383 24.745 369.701 33.8563 379.538C34.3358 379.538 34.8154 380.018 35.2949 380.498Z" fill="#5FDDFC"/>
<path d="M532.34 457.038C560.475 429.205 575.02 407.863 575.02 407.863C626.571 337.561 605.47 262.688 605.47 262.688C572.621 334.189 542.65 353.865 542.65 353.865C623.453 230.776 543.13 156.395 543.13 156.395C575.978 226.457 532.34 311.875 532.34 311.875C495.655 389.136 443.625 416.729 443.625 416.729C501.649 427.526 544.328 388.416 544.328 388.416C461.128 478.393 370.974 474.074 370.974 474.074C408.858 516.543 465.684 512.944 465.684 512.944C391.355 530.46 321.581 505.746 264.276 457.998C253.486 449.12 243.176 439.523 233.585 429.205C233.585 429.205 224.954 420.088 223.275 417.688L223.036 417.448C221.837 461.837 268.112 503.107 268.112 503.107C210.088 479.113 183.473 427.046 183.473 427.046C183.473 427.046 144.391 360.343 172.684 284.282C200.977 208.221 286.575 191.906 286.575 191.906C357.307 226.217 417.25 237.014 417.25 237.014C543.609 258.129 536.416 196.224 536.416 196.224C537.615 142.958 457.292 86.3323 457.292 86.3323C314.148 -19.9608 184.672 48.6618 184.672 48.6618C72.6993 98.3292 39.6109 207.022 39.6109 207.022C34.3359 224.057 29.5405 240.853 26.4235 258.369C14.1952 329.631 32.6576 397.054 72.6993 457.038C135.04 550.135 236.223 582.287 236.223 582.287C386.08 633.154 488.462 558.293 488.462 558.293C582.692 493.509 601.634 418.648 601.634 418.648C543.13 468.389 532.34 457.038 532.34 457.038ZM375.77 122.563C382.963 122.563 388.717 128.322 388.717 135.52C388.717 142.718 382.963 148.477 375.77 148.477C368.576 148.477 362.822 142.718 362.822 135.52C362.822 128.322 368.576 122.563 375.77 122.563Z" fill="url(#paint2_linear)"/>
<path d="M536.176 195.985C537.375 142.718 457.052 86.0925 457.052 86.0925C313.908 -19.9607 184.432 48.662 184.432 48.662C72.4592 98.3294 39.3708 207.022 39.3708 207.022C32.897 225.497 27.1425 253.81 27.1425 253.81C20.1892 289.321 23.3062 322.193 23.3062 322.193C26.1834 353.625 33.1368 374.739 33.1368 374.739C40.3299 397.294 43.6867 404.252 43.6867 404.252C43.4469 403.532 42.2481 398.254 42.2481 398.254C42.2481 398.254 32.1777 349.786 41.5288 303.238C41.5288 303.238 49.681 254.77 82.7693 217.339C82.7693 217.339 136.478 140.799 236.462 170.791C236.462 170.791 258.042 178.469 265.475 182.308C272.908 185.907 285.855 191.426 285.855 191.426C356.588 225.737 416.53 236.534 416.53 236.534C543.369 257.889 536.176 195.985 536.176 195.985ZM375.769 148.717C368.576 148.717 362.822 142.958 362.822 135.76C362.822 128.562 368.576 122.803 375.769 122.803C382.962 122.803 388.717 128.562 388.717 135.76C388.717 142.958 382.962 148.717 375.769 148.717Z" fill="url(#paint3_radial)"/>
<path d="M293.768 99.5289L212.006 74.0953C211.527 74.0953 209.129 72.8956 204.813 74.0953C204.813 74.0953 156.619 86.3322 165.011 112.726C165.011 112.726 170.046 129.281 183.713 145.357L273.627 141.038L293.768 99.5289Z" fill="url(#paint4_linear)"/>
<defs>
<radialGradient id="paint0_radial" cx="0" cy="0" r="1" gradientUnits="userSpaceOnUse" gradientTransform="translate(216.485 640.988) rotate(-26.2269) scale(571.187 521.075)">
<stop offset="0.353" stop-color="#23297E"/>
<stop offset="0.472" stop-color="#3630A7"/>
<stop offset="0.669" stop-color="#2543C3"/>
<stop offset="1" stop-color="#0B4FBF"/>
</radialGradient>
<radialGradient id="paint1_radial" cx="0" cy="0" r="1" gradientUnits="userSpaceOnUse" gradientTransform="translate(389.921 310.542) rotate(-12.4379) scale(265.239 285.934)">
<stop offset="0.206" stop-color="#2543C3" stop-opacity="0"/>
<stop offset="0.278" stop-color="#2B46D5" stop-opacity="0.06"/>
<stop offset="0.682292" stop-color="#43427D" stop-opacity="0.45"/>
<stop offset="0.975" stop-color="#222475" stop-opacity="0.6"/>
</radialGradient>
<linearGradient id="paint2_linear" x1="92.5907" y1="554.216" x2="391.174" y2="236.799" gradientUnits="userSpaceOnUse">
<stop stop-color="#0089E9"/>
<stop offset="0.401" stop-color="#01B5F5"/>
<stop offset="0.77" stop-color="#0077E5"/>
<stop offset="1" stop-color="#0655CA"/>
</linearGradient>
<radialGradient id="paint3_radial" cx="0" cy="0" r="1" gradientUnits="userSpaceOnUse" gradientTransform="translate(420.979 152.324) rotate(0.137033) scale(291.519 243.939)">
<stop stop-color="#04B8F5"/>
<stop offset="0.139" stop-color="#00B4F4"/>
<stop offset="0.285" stop-color="#00A3F0"/>
<stop offset="0.434" stop-color="#0090EB"/>
<stop offset="0.586" stop-color="#0089EA"/>
<stop offset="0.739" stop-color="#007FE7"/>
<stop offset="0.891" stop-color="#0077DC"/>
<stop offset="1" stop-color="#006FD9"/>
</radialGradient>
<linearGradient id="paint4_linear" x1="163.841" y1="109.453" x2="293.698" y2="109.453" gradientUnits="userSpaceOnUse">
<stop stop-color="#03B8F5"/>
<stop offset="0.238" stop-color="#00B5F4"/>
<stop offset="0.658" stop-color="#0295DD"/>
<stop offset="0.999" stop-color="#1676BE"/>
</linearGradient>
<clipPath id="clip0">
<path d="M127.978 145.839H550.05V567.91H127.978V145.839Z" fill="white"/>
</clipPath>
</defs>
</svg>
